<svg xmlns="http://www.w3.org/2000/svg" width="1200" height="420" viewBox="0 0 1200 420" role="img" aria-labelledby="title desc">
  <title id="title">たびダンドリ ロゴ案 v2 単色</title>
  <desc id="desc">チェックリストとピンで構成した旅行管理アプリ「たびダンドリ」の単色ロゴ</desc>
  <rect width="1200" height="420" fill="white"/>

  <g transform="translate(78 70)" fill="none" stroke="#0F6E56" stroke-linecap="round" stroke-linejoin="round">
    <rect x="0" y="0" width="280" height="280" rx="72" stroke-width="14"/>
    <rect x="66" y="54" width="148" height="178" rx="28" stroke-width="14"/>
    <path d="M99 106 L116 123 L146 86" stroke-width="15"/>
    <line x1="160" y1="107" x2="184" y2="107" stroke-width="14" opacity="0.5"/>
    <path d="M99 160 L116 177 L146 140" stroke-width="15"/>
    <line x1="160" y1="161" x2="184" y2="161" stroke-width="14" opacity="0.5"/>
    <circle cx="82" cy="242" r="10" fill="#0F6E56" stroke="none"/>
    <line x1="100" y1="242" x2="146" y2="242" stroke-width="10" opacity="0.5"/>
    <circle cx="164" cy="242" r="10" fill="#0F6E56" stroke="none"/>
    <path d="M204 129 C204 96 230 72 262 72 C294 72 320 96 320 129 C320 177 262 229 262 229 C262 229 204 177 204 129Z"
          transform="translate(-48 0)"
          fill="#0F6E56" stroke="none"/>
    <circle cx="214" cy="129" r="22" fill="white" stroke="none"/>
  </g>

  <g transform="translate(408 112)">
    <text x="0" y="96"
          font-family="'Noto Sans JP', 'Hiragino Sans', 'Yu Gothic', 'Meiryo', sans-serif"
          font-size="84"
          font-weight="800"
          letter-spacing="1"
          fill="#0F6E56">たびダンドリ</text>
    <text x="4" y="158"
          font-family="'Noto Sans JP', 'Hiragino Sans', 'Yu Gothic', 'Meiryo', sans-serif"
          font-size="30"
          font-weight="600"
          letter-spacing="1.2"
          fill="#0F6E56">TabiDandori</text>
    <text x="4" y="210"
          font-family="'Noto Sans JP', 'Hiragino Sans', 'Yu Gothic', 'Meiryo', sans-serif"
          font-size="26"
          font-weight="500"
          fill="#0F6E56">旅の段取り、まるごとひとつに。</text>
  </g>
</svg>
